<svg width="200" height="152" viewBox="0 0 200 152" fill="none" xmlns="http://www.w3.org/2000/svg">
<path d="M198.83 102.83L150.83 150.83C150.079 151.581 149.061 152.002 148 152.002C146.939 152.002 145.921 151.581 145.17 150.83C144.419 150.079 143.998 149.061 143.998 148C143.998 146.939 144.419 145.921 145.17 145.17L186.34 104H100C73.4873 103.971 48.0688 93.4258 29.3215 74.6785C10.5742 55.9312 0.029116 30.5127 0 4C0 2.93913 0.421428 1.92172 1.17157 1.17157C1.92172 0.421428 2.93913 0 4 0C5.06087 0 6.07828 0.421428 6.82843 1.17157C7.57857 1.92172 8 2.93913 8 4C8.02647 28.3918 17.7278 51.777 34.9754 69.0246C52.223 86.2722 75.6082 95.9735 100 96H186.34L145.17 54.83C144.419 54.0794 143.998 53.0615 143.998 52C143.998 50.9385 144.419 49.9206 145.17 49.17C145.921 48.4194 146.939 47.9978 148 47.9978C149.061 47.9978 150.079 48.4194 150.83 49.17L198.83 97.17C199.202 97.5415 199.497 97.9826 199.698 98.4682C199.9 98.9538 200.003 99.4743 200.003 100C200.003 100.526 199.9 101.046 199.698 101.532C199.497 102.017 199.202 102.459 198.83 102.83Z" fill="black"/>
</svg>
