<svg width="152" height="200" viewBox="0 0 152 200" fill="none" xmlns="http://www.w3.org/2000/svg">
<path d="M150.83 150.83L102.83 198.83C102.459 199.202 102.017 199.497 101.532 199.698C101.046 199.9 100.526 200.003 100 200.003C99.4743 200.003 98.9538 199.9 98.4682 199.698C97.9826 199.497 97.5415 199.202 97.17 198.83L49.17 150.83C48.4194 150.079 47.9978 149.061 47.9978 148C47.9978 146.939 48.4194 145.921 49.17 145.17C49.9206 144.419 50.9385 143.998 52 143.998C53.0615 143.998 54.0794 144.419 54.83 145.17L96 186.34V100C95.9735 75.6082 86.2722 52.223 69.0246 34.9754C51.777 17.7278 28.3918 8.02647 4 8C2.93913 8 1.92172 7.57857 1.17157 6.82843C0.421428 6.07828 0 5.06087 0 4C0 2.93913 0.421428 1.92172 1.17157 1.17157C1.92172 0.421428 2.93913 0 4 0C30.5127 0.029116 55.9312 10.5742 74.6785 29.3215C93.4258 48.0688 103.971 73.4873 104 100V186.34L145.17 145.17C145.921 144.419 146.939 143.998 148 143.998C149.061 143.998 150.079 144.419 150.83 145.17C151.581 145.921 152.002 146.939 152.002 148C152.002 149.061 151.581 150.079 150.83 150.83Z" fill="black"/>
</svg>
