<svg width="249" height="191" viewBox="0 0 249 191" fill="none" xmlns="http://www.w3.org/2000/svg">
<path opacity="0.9" d="M174.111 89.9814L246.892 162.762L236.562 173.085L163.781 100.304L174.111 89.9814ZM75.4292 90.2954L85.7514 100.618L13.4814 172.888L3.15918 162.595L75.4292 90.2954Z" fill="black"/>
<path d="M124.5 131.27C113.55 131.27 101.87 126.89 93.8398 118.13L2.58984 27.6101L12.8098 17.3901L104.06 108.64C115.74 120.32 133.99 120.32 145.67 108.64L236.92 17.3901L247.14 27.6101L155.16 118.86C147.13 126.89 135.45 131.27 124.5 131.27Z" fill="black"/>
<path d="M226.7 190.4H22.3004C9.89039 190.4 0.400391 180.91 0.400391 168.5V22.5001C0.400391 10.0901 9.89039 0.600098 22.3004 0.600098H226.7C239.11 0.600098 248.6 10.0901 248.6 22.5001V168.5C248.6 180.91 239.11 190.4 226.7 190.4ZM22.3004 15.2001C17.9204 15.2001 15.0004 18.1201 15.0004 22.5001V168.5C15.0004 172.88 17.9204 175.8 22.3004 175.8H226.7C231.08 175.8 234 172.88 234 168.5V22.5001C234 18.1201 231.08 15.2001 226.7 15.2001H22.3004Z" fill="black"/>
</svg>
