<svg width="48" height="36" viewBox="0 0 48 36" fill="none" xmlns="http://www.w3.org/2000/svg">
<path fill-rule="evenodd" clip-rule="evenodd" d="M9.6 4.8H38.4C39.2 4.8 39.952 4.992 40.6144 5.3408L26.4 16C25.7076 16.5193 24.8655 16.8 24 16.8C23.1345 16.8 22.2924 16.5193 21.6 16L7.3856 5.3408C8.048 4.992 8.8032 4.8 9.6 4.8ZM4.8032 9.4016L4.8 9.6V25.6C4.8 26.873 5.30571 28.0939 6.20589 28.9941C7.10606 29.8943 8.32696 30.4 9.6 30.4H38.4C39.673 30.4 40.8939 29.8943 41.7941 28.9941C42.6943 28.0939 43.2 26.873 43.2 25.6V9.6L43.1968 9.4016L29.28 19.84C27.7568 20.9824 25.9041 21.6 24 21.6C22.0959 21.6 20.2432 20.9824 18.72 19.84L4.8032 9.4016ZM0 9.6C0 7.05392 1.01143 4.61212 2.81177 2.81178C4.61212 1.01143 7.05392 0 9.6 0H38.4C40.9461 0 43.3879 1.01143 45.1882 2.81178C46.9886 4.61212 48 7.05392 48 9.6V25.6C48 28.1461 46.9886 30.5879 45.1882 32.3882C43.3879 34.1886 40.9461 35.2 38.4 35.2H9.6C7.05392 35.2 4.61212 34.1886 2.81177 32.3882C1.01143 30.5879 0 28.1461 0 25.6V9.6Z" fill="black"/>
</svg>
