<svg width="220" height="197" viewBox="0 0 220 197" fill="none" xmlns="http://www.w3.org/2000/svg">
<path d="M217.57 1.7002C216.606 0.866888 215.432 0.312839 214.175 0.0978371C212.919 -0.117164 211.627 0.0150438 210.44 0.480196L7.78041 79.7902C5.31543 80.7547 3.2299 82.4929 1.83703 84.7438C0.444164 86.9946 -0.180853 89.6366 0.0558443 92.273C0.292542 94.9094 1.37818 97.3978 3.14971 99.3645C4.92124 101.331 7.28304 102.67 9.88041 103.18L64.0004 113.81V174C64.0015 176.791 64.8365 179.517 66.3981 181.83C67.9597 184.142 70.1768 185.935 72.7647 186.979C75.3526 188.022 78.1934 188.269 80.9223 187.686C83.6513 187.104 86.1439 185.719 88.0804 183.71L114.72 156.08L156.3 192.53C158.839 194.776 162.111 196.018 165.5 196.02C166.981 196.017 168.451 195.784 169.86 195.33C172.17 194.599 174.248 193.276 175.887 191.491C177.526 189.707 178.668 187.524 179.2 185.16L219.82 8.5702C220.106 7.32873 220.047 6.03288 219.651 4.82227C219.254 3.61166 218.535 2.5322 217.57 1.7002ZM12.0504 91.3702C12.0121 91.267 12.0121 91.1534 12.0504 91.0502C12.0956 91.0153 12.1463 90.9883 12.2004 90.9702L171.91 28.4502L68.6104 102.45L12.2004 91.4102L12.0504 91.3702ZM79.4404 175.37C79.1648 175.656 78.8103 175.854 78.422 175.937C78.0337 176.021 77.6293 175.987 77.2603 175.84C76.8913 175.693 76.5745 175.44 76.3501 175.112C76.1257 174.784 76.004 174.397 76.0004 174V122.11L105.69 148.11L79.4404 175.37ZM167.51 182.45C167.437 182.788 167.273 183.1 167.038 183.354C166.802 183.607 166.502 183.792 166.17 183.89C165.832 184.009 165.467 184.035 165.116 183.964C164.764 183.894 164.437 183.73 164.17 183.49L79.6404 109.34L205 19.5002L167.51 182.45Z" fill="black"/>
</svg>
