<svg width="50" height="42" viewBox="0 0 50 42" fill="none" xmlns="http://www.w3.org/2000/svg">
<path fill-rule="evenodd" clip-rule="evenodd" d="M49.1183 4.26584C49.225 3.6184 49.1561 2.95418 48.9188 2.3424C48.6815 1.73063 48.2845 1.19367 47.7692 0.787484C47.2538 0.381299 46.639 0.120747 45.9887 0.0329749C45.3384 -0.0547973 44.6765 0.0334218 44.0719 0.288442L2.24314 17.9006C-0.672642 19.1285 -0.821855 23.3456 2.24314 24.6176C5.27809 25.8834 8.35728 27.0403 11.4748 28.0862C14.3319 29.0304 17.4483 29.9037 19.9458 30.1508C20.6282 30.9678 21.4868 31.7554 22.3625 32.4746C23.7006 33.5753 25.3101 34.7079 26.9735 35.794C30.3051 37.971 34.0012 40.0527 36.4914 41.4078C39.4683 43.0223 43.0323 41.1632 43.5656 37.9172L49.1183 4.26584ZM6.93237 21.2346L43.9276 5.65769L38.7467 37.066C36.303 35.7377 32.783 33.749 29.6471 31.6992C28.2018 30.7712 26.8064 29.7677 25.4667 28.6929C25.1086 28.4004 24.761 28.0952 24.4246 27.778L34.1137 18.0914C34.5727 17.6327 34.8307 17.0105 34.8309 16.3616C34.8312 15.7127 34.5736 15.0903 34.1149 14.6313C33.6563 14.1723 33.0341 13.9143 32.3852 13.9141C31.7363 13.9139 31.1139 14.1714 30.6549 14.6301L20.0461 25.2389C18.2506 25.009 15.7507 24.3437 13.0061 23.4386C10.9628 22.7579 8.93834 22.0222 6.93481 21.2322L6.93237 21.2346Z" fill="black"/>
</svg>
