<svg width="205" height="204" viewBox="0 0 205 204" fill="none" xmlns="http://www.w3.org/2000/svg">
<path d="M161.68 120.63L129.68 104.63C128.735 104.16 127.682 103.948 126.629 104.014C125.575 104.081 124.558 104.424 123.68 105.01L108 115.46C100.062 111.396 93.6036 104.938 89.5399 97L99.9999 81.33C100.585 80.4517 100.929 79.4345 100.996 78.381C101.062 77.3276 100.85 76.2751 100.38 75.33L84.3799 43.33C83.8824 42.3288 83.1151 41.4866 82.1646 40.8982C81.214 40.3098 80.1179 39.9987 78.9999 40C68.9217 40 59.2563 44.0036 52.1299 51.1299C45.0035 58.2563 40.9999 67.9218 40.9999 78C41.0264 100.8 50.0956 122.66 66.218 138.782C82.3404 154.904 104.199 163.974 127 164C137.078 164 146.744 159.996 153.87 152.87C160.996 145.744 165 136.078 165 126C165 124.885 164.69 123.792 164.103 122.843C163.517 121.894 162.678 121.128 161.68 120.63ZM127 152C107.381 151.976 88.5729 144.172 74.7003 130.3C60.8278 116.427 53.0237 97.6187 52.9999 78C53.0005 71.725 55.2705 65.6618 59.391 60.9293C63.5116 56.1967 69.2047 53.114 75.4199 52.25L88.0799 77.57L77.6899 93.15C77.144 93.9717 76.8091 94.9154 76.7149 95.8974C76.6208 96.8794 76.7702 97.8695 77.1499 98.78C82.6672 111.898 93.1024 122.333 106.22 127.85C107.13 128.23 108.121 128.379 109.103 128.285C110.085 128.191 111.028 127.856 111.85 127.31L127.43 116.92L152.75 129.58C151.886 135.795 148.803 141.488 144.071 145.609C139.338 149.729 133.275 151.999 127 152ZM103 2.24816e-06C85.3178 -0.00370971 67.9384 4.58928 52.5668 13.3284C37.1952 22.0674 24.3594 34.6524 15.3188 49.8486C6.27811 65.0448 1.34312 82.3302 0.997955 100.009C0.652792 117.688 4.90932 135.153 13.3499 150.69L1.72993 185.56C0.907298 188.027 0.787915 190.674 1.38516 193.205C1.98241 195.735 3.27269 198.05 5.11138 199.889C6.95007 201.727 9.26451 203.018 11.7953 203.615C14.3261 204.212 16.9732 204.093 19.4399 203.27L54.3099 191.65C67.9598 199.057 83.1208 203.25 98.6371 203.908C114.153 204.567 129.615 201.673 143.843 195.448C158.071 189.224 170.69 179.832 180.738 167.99C190.785 156.148 197.996 142.168 201.82 127.116C205.644 112.064 205.98 96.3374 202.804 81.1355C199.627 65.9337 193.021 51.658 183.489 39.397C173.957 27.1359 161.752 17.2133 147.803 10.3858C133.854 3.55822 118.53 0.0060086 103 2.24816e-06ZM103 192C87.1793 192.004 71.6371 187.837 57.9399 179.92C57.0268 179.395 55.9932 179.116 54.9399 179.11C54.2943 179.114 53.6533 179.218 53.0399 179.42L15.6499 191.88C15.2975 191.998 14.9194 192.015 14.5578 191.929C14.1963 191.844 13.8657 191.66 13.603 191.397C13.3403 191.134 13.156 190.804 13.0707 190.442C12.9854 190.081 13.0024 189.702 13.1199 189.35L25.5799 152C25.8495 151.193 25.9444 150.338 25.8582 149.491C25.772 148.645 25.5067 147.826 25.0799 147.09C15.1525 129.941 11.1621 109.995 13.7278 90.3465C16.2936 70.6981 25.272 52.4456 39.2702 38.4208C53.2684 24.396 71.5038 15.383 91.1474 12.7799C110.791 10.1769 130.744 14.1294 147.912 24.0243C165.08 33.9192 178.503 49.2033 186.097 67.5053C193.692 85.8074 195.034 106.104 189.916 125.247C184.798 144.39 173.505 161.308 157.79 173.378C142.074 185.448 122.815 191.993 103 192Z" fill="black"/>
</svg>
