<svg width="42" height="42" viewBox="0 0 42 42" fill="none" xmlns="http://www.w3.org/2000/svg">
<path d="M21 0C32.5983 0 42 9.4017 42 21C42 32.5983 32.5983 42 21 42C17.4257 42.0052 13.9097 41.0942 10.7877 39.354L10.1472 38.9802L3.78002 40.8534C3.43352 40.9555 3.06669 40.9674 2.7143 40.888C2.36191 40.8086 2.03563 40.6405 1.76641 40.3997C1.49718 40.1589 1.29392 39.8533 1.1759 39.5119C1.05788 39.1705 1.029 38.8046 1.09202 38.4489L1.14662 38.22L3.01982 31.8528C1.03943 28.5795 -0.00506949 24.8257 1.85e-05 21C1.85e-05 9.4017 9.40171 0 21 0ZM21 4.2C17.992 4.19945 15.0391 5.00652 12.4495 6.53691C9.85994 8.0673 7.72876 10.2649 6.27852 12.9002C4.82827 15.5355 4.11216 18.5118 4.20497 21.5183C4.29777 24.5249 5.19609 27.4514 6.80612 29.9922C7.22192 30.6474 7.40041 31.4538 7.25971 32.2539L7.17782 32.5962L6.25172 35.7483L9.40381 34.8222C10.3131 34.5534 11.2581 34.7172 12.0078 35.1939C14.2093 36.5878 16.7049 37.4506 19.2972 37.714C21.8896 37.9773 24.5076 37.6341 26.9445 36.7113C29.3813 35.7886 31.5701 34.3116 33.3379 32.3973C35.1056 30.4829 36.4038 28.1836 37.1298 25.6811C37.8559 23.1786 37.9899 20.5415 37.5212 17.9783C37.0526 15.4151 35.9941 12.9961 34.4295 10.9124C32.8649 8.82871 30.837 7.13755 28.5063 5.97257C26.1755 4.80759 23.6057 4.20074 21 4.2ZM14.9142 10.8864C15.1467 10.7857 15.4014 10.7473 15.6533 10.7749C15.9051 10.8025 16.1455 10.8952 16.3506 11.0439C17.409 11.8167 18.249 12.8541 18.9714 13.8663L19.6581 14.8617L19.9794 15.3342C20.1648 15.6053 20.2558 15.9298 20.2383 16.2577C20.2209 16.5857 20.0959 16.8987 19.8828 17.1486L19.7253 17.3082L17.7849 18.7488C17.6915 18.8164 17.6258 18.9156 17.5999 19.0279C17.5741 19.1403 17.5898 19.2582 17.6442 19.3599C18.0852 20.1579 18.8643 21.3486 19.7589 22.2432C20.6556 23.1378 21.9009 23.9694 22.7535 24.4587C22.9383 24.5637 23.1609 24.5301 23.3121 24.3936L23.3919 24.2991L24.654 22.3776C24.8857 22.0689 25.2279 21.862 25.6088 21.8001C25.9898 21.7383 26.3799 21.8263 26.6973 22.0458L27.8376 22.8417C28.9716 23.6502 30.0615 24.5196 30.9246 25.6221C31.0851 25.8289 31.1871 26.075 31.22 26.3347C31.2529 26.5944 31.2154 26.8581 31.1115 27.0984C30.2799 29.0388 28.1736 30.6915 25.9854 30.6117L25.6515 30.5907L25.2504 30.5529C25.1747 30.5439 25.0991 30.5341 25.0236 30.5235L24.5238 30.4395C22.5834 30.0741 19.4733 28.9737 16.2498 25.7523C13.0284 22.5288 11.928 19.4187 11.5626 17.4783L11.4786 16.9785L11.4261 16.5417L11.3988 16.1742C11.3955 16.1217 11.3927 16.0692 11.3904 16.0167C11.3106 13.8243 12.9717 11.718 14.9142 10.8864Z" fill="black"/>
</svg>
