<svg width="650" height="650" viewBox="0 0 650 650" fill="none" xmlns="http://www.w3.org/2000/svg">
<g clip-path="url(#clip0_142_17)">
<circle cx="325" cy="325" r="325" fill="#6D6840"/>
<path d="M314.5 528C307 485 276.5 431 218.5 387.5C190 366 161 352 132.5 346V325C189 311.5 244.5 273.5 280 222C298 196 309.5 170.5 314.5 144H335.5C344 194.5 383 250.5 436 288C462 306.5 489 319 516.5 325V346C461 357.5 396.5 407 364.5 457.5C348.5 483 339 506.5 335.5 528H314.5Z" fill="white"/>
</g>
<defs>
<clipPath id="clip0_142_17">
<rect width="650" height="650" fill="white"/>
</clipPath>
</defs>
</svg>
